<svg xmlns="http://www.w3.org/2000/svg" fill="none" viewBox="0 0 41 63">
    <path fill="#3d4569"
        d="M17.737 26.873c1.498-.203 2.884-.395 4.28-.587 2.141-.287 4.282-.563 6.41-.898.26-.036.632-.3.71-.54 2.445-7.26 5.42-14.269 8.709-21.146.462-.97.743-2.048 1.149-3.043.101-.263.394-.431.597-.647.18.264.44.503.518.791.113.443.011.827-.315 1.246-.248.311-.17.91-.248 1.378-.057.395-.057.814-.203 1.162-2.535 6.17-5.092 12.316-7.638 18.486-.26.623-.462 1.27-.777 2.133 2.534-.48 4.866-.91 7.21-1.354-.057-.096-.102-.18-.158-.275.124-.312.169-.78.383-.899.18-.096.72.12.811.335.146.36.214.935.045 1.235-.191.347-.665.61-1.059.695-2.062.455-4.134.85-6.207 1.245-.35.072-.721.06-1.07.156-.203.06-.372.252-.665.456h5.126c1.318 0 2.636-.036 3.954-.024.338 0 .698.012.991.155.282.144.473.468.71.72-.248.227-.484.61-.755.646-1.307.168-2.625.24-3.943.336a546.03 546.03 0 0 0-6.24.49c-.204.025-.519.228-.575.42-.744 2.18-1.454 4.373-2.175 6.566a.22.22 0 0 0 0 .131c1.499-.155 2.997-.347 4.484-.443.969-.06 1.51.276 1.487.815-.056.898-.777.839-1.352.91-1.543.216-3.087.42-4.641.563-.53.048-.721.276-.89.767a1712.763 1712.763 0 0 1-5.576 16.797c-.62 1.822-1.386 3.583-2.096 5.368-.113.276-.214.599-.417.79-.18.18-.507.336-.732.288-.18-.036-.428-.407-.417-.61.034-.444.09-1.007.36-1.27.97-.971 1.082-2.349 1.646-3.5.033-.071.056-.239.01-.275-.844-.743-.416-1.665-.247-2.492.957-4.672 2.58-9.13 4.258-13.55.214-.563.428-1.126.699-1.821-.857.215-1.611.42-2.366.599-2.602.599-5.205 1.21-7.807 1.749-.597.132-.89.395-1.07 1.006-1.521 4.949-3.064 9.873-4.608 14.809-.079.263-.124.575-.293.779-.18.215-.518.479-.72.419-.204-.06-.485-.48-.463-.719.057-.779.237-1.557.383-2.324.057-.336.147-.671.102-1.043-.586 1.702-1.16 3.391-1.746 5.092-.192.54-.214 1.474-.992 1.186-.822-.3-.281-1.078-.101-1.63C6.02 53.1 7.846 47.697 9.659 42.306c.045-.12.068-.24.124-.503-.552.107-1.025.18-1.498.3-1.453.335-2.907.67-4.348 1.053-.18.048-.305.336-.462.504-.17.18-.395.527-.507.49a3.68 3.68 0 0 1-1.228-.634c-.09-.072.022-.6.18-.79.191-.229.518-.384.811-.456 2.31-.587 4.619-1.138 6.928-1.713.27-.072.507-.24.766-.372a3.017 3.017 0 0 1-.09-.3L1.537 41.18c.034.06.079.12.113.191-.226.252-.609.743-.665.707-.372-.263-.732-.599-.98-.994-.057-.084.394-.72.665-.767 1.994-.42 4.01-.767 6.015-1.102 1.183-.204 2.377-.312 3.56-.527.282-.048.687-.252.778-.492.833-2.3 1.622-4.624 2.455-7.032-1.464.215-2.85.455-4.247.61-1.667.18-3.346.3-5.013.42-.372.024-.924.204-.946-.467-.023-.66.552-.6.957-.647 2.242-.264 4.484-.492 6.715-.767a28.03 28.03 0 0 0 2.624-.467c.237-.06.44-.3.575-.623-1.78 0-3.56-.048-5.34.012-1.171.047-2.332.275-3.503.371-.214.012-.451-.24-.676-.383.169-.24.304-.564.53-.683.258-.144.607-.108.912-.144 2.658-.335 5.306-.683 7.964-1.006.598-.072.947-.276 1.206-.923 2.861-7.069 5.779-14.125 8.674-21.17.068-.168.113-.384.237-.455.236-.156.53-.216.788-.324.09.288.237.575.237.863 0 .263-.214.515-.27.778-.09.432-.124.863-.192 1.294-.045.3-.045.635-.169.887-2.095 4.265-3.571 8.782-5.103 13.287-.507 1.485-.991 2.983-1.487 4.469-.056.227-.113.443-.214.778ZM13.884 38.28c1.217-.108 2.31-.204 3.402-.311 2.22-.228 4.439-.456 6.647-.743.281-.036.642-.336.766-.623.81-1.845 1.554-3.726 2.32-5.595.192-.48.361-.983.575-1.594-1.138.12-2.163.216-3.177.336-2.5.287-5.002.575-7.491.898-.214.024-.519.216-.586.396-.823 2.36-1.611 4.732-2.456 7.236Zm8.697-10.843c1.791.216 5.576-.263 5.937-.802-2.04.287-3.988.539-5.937.802Zm-5.588 1.654c.012.084.012.168.023.251.732-.095 1.464-.203 2.208-.3 0-.035 0-.059-.012-.095l-2.219.144Z"></path>
</svg>