<svg width="500" height="479" viewBox="0 0 500 479" fill="none" xmlns="http://www.w3.org/2000/svg">
    <path
        d="M428.786 179.251C402.763 76.9208 312.843 3.05295 207.298 0.0901737C151.499 -1.47617 92.7834 17.0298 50.0339 81.7889C-26.3854 197.553 54.7301 277.549 111.282 315.562C138.603 333.964 163.221 356.09 184.422 381.301C222.621 426.629 296.107 482.957 383.625 394.7C447.058 330.732 446.12 247.413 428.786 179.251Z"
        fill="#6A3ED4" />
    <path
        d="M499.421 407.135C499.421 432.253 389.809 478.977 251.738 478.977C113.667 478.977 0 435.15 0 410.031C0 384.913 113.667 388.015 251.738 388.015C389.809 388.015 499.421 382.016 499.421 407.135Z"
        fill="#3F3D56" />
    <path opacity="0.1"
        d="M499.421 407.135C499.421 432.253 389.809 478.977 251.738 478.977C113.667 478.977 0 435.15 0 410.031C0 384.913 113.667 388.015 251.738 388.015C389.809 388.015 499.421 382.016 499.421 407.135Z"
        fill="#070A1A" />
    <path
        d="M250 455.223C388.071 455.223 500 434.86 500 409.742C500 384.623 388.071 364.261 250 364.261C111.929 364.261 0 384.623 0 409.742C0 434.86 111.929 455.223 250 455.223Z"
        fill="#3F3D56" />
    <path
        d="M344.646 255.063V376.699L364.992 409.857L366.54 412.379H446.82L448.442 255.063H344.646Z"
        fill="#2F2E41" />
    <path opacity="0.1" d="M344.646 255.063V376.699L364.992 409.857L366.24 255.063H344.646Z"
        fill="#070A1A" />
    <path
        d="M150.839 251.819V373.455L130.493 406.613L128.944 409.135H48.664L47.0423 251.819H150.839Z"
        fill="#2F2E41" />
    <path opacity="0.1" d="M150.839 251.819V373.455L130.493 406.613L129.244 251.819H150.839Z"
        fill="#070A1A" />
    <path d="M472.769 249.386V256.684H36.5006V246.142L77.0458 225.059H437.089L472.769 249.386Z"
        fill="#2F2E41" />
    <path opacity="0.1" d="M472.769 249.386V256.684H36.5006V246.143L472.769 249.386Z" fill="#070A1A" />
    <path opacity="0.1" d="M98.9404 285.877H79.4786L71.3697 280.2H107.86L98.9404 285.877Z"
        fill="#070A1A" />
    <path opacity="0.1" d="M98.9404 309.393H79.4786L71.3697 303.717H107.86L98.9404 309.393Z"
        fill="#070A1A" />
    <path opacity="0.1" d="M98.9404 342.641H79.4786L71.3697 336.964H107.86L98.9404 342.641Z"
        fill="#070A1A" />
    <path opacity="0.1" d="M98.9404 375.888H79.4786L71.3697 370.211H107.86L98.9404 375.888Z"
        fill="#070A1A" />
    <path opacity="0.1" d="M396.544 289.121H416.006L424.115 283.444H387.624L396.544 289.121Z"
        fill="#070A1A" />
    <path opacity="0.1" d="M396.544 312.637H416.006L424.115 306.961H387.624L396.544 312.637Z"
        fill="#070A1A" />
    <path opacity="0.1" d="M396.544 345.884H416.006L424.115 340.208H387.624L396.544 345.884Z"
        fill="#070A1A" />
    <path opacity="0.1" d="M396.544 379.132H416.006L424.115 373.455H387.624L396.544 379.132Z"
        fill="#070A1A" />
    <path
        d="M308.526 204.766L305.821 222.036C305.821 222.036 292.505 229.11 301.868 229.318C311.231 229.526 355.341 229.318 355.341 229.318C355.341 229.318 363.872 229.318 350.348 221.828L347.643 203.726L308.526 204.766Z"
        fill="#3F3D56" />
    <path opacity="0.1"
        d="M299.984 229.131C301.803 227.661 303.757 226.367 305.821 225.267L308.526 207.998L347.643 208.034L350.348 225.059C352.57 226.206 354.665 227.585 356.598 229.172C358.335 228.776 360.234 227.303 350.348 221.828L347.643 203.726L308.526 204.766L305.821 222.036C305.821 222.036 294.631 227.981 299.984 229.131Z"
        fill="#070A1A" />
    <path
        d="M409.797 84.3986H245.955C242.533 84.3986 239.759 87.1727 239.759 90.5949V200.963C239.759 204.385 242.533 207.159 245.955 207.159H409.797C413.219 207.159 415.993 204.385 415.993 200.963V90.5949C415.993 87.1727 413.219 84.3986 409.797 84.3986Z"
        fill="#3F3D56" />
    <path d="M410.063 90.9527H245.689V182.919H410.063V90.9527Z" fill="#222222" />
    <path
        d="M327.876 89.08C328.451 89.08 328.917 88.6142 328.917 88.0397C328.917 87.4651 328.451 86.9993 327.876 86.9993C327.302 86.9993 326.836 87.4651 326.836 88.0397C326.836 88.6142 327.302 89.08 327.876 89.08Z"
        fill="#6A3ED4" />
    <path
        d="M415.993 190.201V200.963C415.993 201.776 415.833 202.582 415.522 203.334C415.211 204.086 414.754 204.769 414.179 205.344C413.603 205.92 412.92 206.376 412.168 206.688C411.417 206.999 410.611 207.159 409.797 207.159H245.955C245.142 207.159 244.336 206.999 243.584 206.688C242.832 206.376 242.149 205.92 241.574 205.344C240.998 204.769 240.542 204.086 240.231 203.334C239.919 202.582 239.759 201.776 239.759 200.963V190.201H415.993Z"
        fill="#3F3D56" />
    <path
        d="M327.876 202.686C330.06 202.686 331.83 200.916 331.83 198.732C331.83 196.549 330.06 194.779 327.876 194.779C325.693 194.779 323.923 196.549 323.923 198.732C323.923 200.916 325.693 202.686 327.876 202.686Z"
        fill="#6A3ED4" />
    <path
        d="M321.716 240.554V242.635H209.775V240.971L209.929 240.554L212.688 233.064H319.427L321.716 240.554Z"
        fill="#3F3D56" />
    <path
        d="M364.794 238.517C364.59 239.389 363.821 240.309 362.081 241.178C355.839 244.299 343.147 240.346 343.147 240.346C343.147 240.346 333.368 238.682 333.368 234.312C333.642 234.124 333.929 233.954 334.225 233.802C336.849 232.414 345.551 228.988 360.979 233.947C362.116 234.304 363.131 234.969 363.912 235.869C364.258 236.209 364.518 236.627 364.672 237.087C364.825 237.547 364.867 238.037 364.794 238.517Z"
        fill="#3F3D56" />
    <path opacity="0.1"
        d="M364.794 238.517C357.154 241.445 350.344 241.663 343.355 236.809C339.83 234.362 336.628 233.757 334.225 233.802C336.849 232.414 345.551 228.988 360.979 233.947C362.116 234.304 363.131 234.969 363.912 235.869C364.258 236.209 364.518 236.627 364.672 237.087C364.825 237.547 364.867 238.037 364.794 238.517Z"
        fill="#070A1A" />
    <path
        d="M355.215 236.809C356.709 236.809 357.92 236.436 357.92 235.977C357.92 235.517 356.709 235.144 355.215 235.144C353.721 235.144 352.51 235.517 352.51 235.977C352.51 236.436 353.721 236.809 355.215 236.809Z"
        fill="#6A3ED4" />
    <path opacity="0.1" d="M321.716 240.554V242.635H209.775V240.97L209.929 240.554H321.716Z"
        fill="#070A1A" />
    <path
        d="M385.686 134.387C384.803 133.503 373.468 119.225 371.555 116.87C369.494 114.515 368.611 114.956 367.286 115.104C365.961 115.251 351.683 117.753 350.064 117.9C348.445 118.195 347.414 118.784 348.445 120.256C349.328 121.58 358.748 134.828 360.809 137.919L323.274 146.898L293.54 96.9982C292.362 95.2318 292.068 94.643 289.418 94.7902C286.769 94.9374 266.014 96.7038 264.542 96.7038C263.07 96.851 261.451 97.4398 262.923 100.973C264.394 104.505 287.946 155.141 288.535 156.613C289.124 158.085 290.89 160.441 294.865 159.557C298.986 158.527 313.117 154.847 320.919 152.786C325.04 160.146 333.283 175.16 334.902 177.368C336.963 180.312 338.435 179.724 341.526 178.84C344.029 178.104 380.092 165.151 381.711 164.415C383.331 163.679 384.361 163.237 383.183 161.618C382.3 160.441 372.88 147.634 367.875 141.01C371.26 140.127 383.478 136.889 384.803 136.447C386.275 136.006 386.569 135.27 385.686 134.387ZM317.533 148.37C317.091 148.518 296.042 153.522 295.012 153.817C293.834 154.111 293.834 153.964 293.834 153.522C293.54 153.081 268.81 101.856 268.369 101.267C268.074 100.678 268.074 100.089 268.369 100.089C268.663 100.089 288.241 98.323 288.829 98.323C289.565 98.323 289.418 98.4702 289.713 98.9118C289.713 98.9118 317.239 146.457 317.68 147.193C318.269 147.929 317.975 148.223 317.533 148.37ZM376.707 159.41C377.001 159.999 377.443 160.293 376.265 160.588C375.235 161.029 340.79 172.658 340.054 172.952C339.318 173.247 338.877 173.394 337.994 172.069C337.11 170.745 325.923 151.462 325.923 151.462L362.576 141.894C363.459 141.599 363.753 141.452 364.342 142.335C364.931 143.366 376.412 158.969 376.707 159.41ZM379.062 133.503C378.179 133.651 364.784 137.036 364.784 137.036L353.744 122.022C353.449 121.58 353.155 121.139 353.891 120.992C354.627 120.844 367.139 118.636 367.728 118.489C368.316 118.342 368.758 118.195 369.494 119.225C370.23 120.108 379.651 132.179 380.092 132.62C380.534 133.062 379.945 133.356 379.062 133.503Z"
        fill="#6A3ED4" />
    <path
        d="M228.644 112.48C240.882 112.48 250.803 102.559 250.803 90.3213C250.803 78.0832 240.882 68.1622 228.644 68.1622C216.406 68.1622 206.485 78.0832 206.485 90.3213C206.485 102.559 216.406 112.48 228.644 112.48Z"
        fill="#FFB9B9" />
    <path
        d="M212.316 101.401V136.389H248.47C248.47 136.389 243.805 107.232 246.138 98.4851L212.316 101.401Z"
        fill="#FFB9B9" />
    <path
        d="M284.042 148.635C284.042 148.635 249.637 131.724 249.637 130.558C249.637 129.391 246.138 121.811 243.805 121.811C241.473 121.811 221.646 115.396 210.567 124.726L209.4 132.307L166.831 160.298L178.494 202.866C178.494 202.866 186.075 211.03 183.742 216.862C181.41 222.693 185.492 252.433 185.492 252.433L277.044 249.517V209.864C277.044 209.864 279.96 200.534 281.709 197.618C283.458 194.703 281.709 185.955 281.709 185.955L295.704 168.461C295.704 168.461 293.955 152.134 284.042 148.635Z"
        fill="#D0CDE1" />
    <path opacity="0.1"
        d="M168.289 174.584L170.913 160.298C170.913 160.298 155.752 226.192 157.501 233.773C159.251 241.353 172.08 253.016 173.829 253.599C175.578 254.182 191.906 203.45 191.906 203.45L168.289 174.584Z"
        fill="#070A1A" />
    <path
        d="M176.745 158.548L166.831 160.297C166.831 160.297 151.67 226.192 153.419 233.773C155.169 241.353 167.998 253.016 169.747 253.599C171.496 254.182 187.824 203.45 187.824 203.45L176.745 158.548Z"
        fill="#D0CDE1" />
    <path opacity="0.1"
        d="M287.249 178.083L292.205 168.461C292.205 168.461 299.203 234.356 294.538 240.77C289.873 247.185 271.419 249.585 271.419 249.585L271.213 201.7L287.249 178.083Z"
        fill="#070A1A" />
    <path
        d="M288.123 160.881L295.704 168.461C295.704 168.461 302.702 234.356 298.037 240.77C293.372 247.185 274.918 249.585 274.918 249.585L274.711 201.7L288.123 160.881Z"
        fill="#D0CDE1" />
    <path
        d="M174.995 261.18C174.995 261.18 158.084 254.765 155.169 267.011C152.253 279.257 162.166 334.072 162.166 334.072C162.166 334.072 168.581 375.474 172.663 376.641C176.745 377.807 194.822 378.39 197.738 373.142C200.653 367.894 188.991 314.245 188.991 314.245L256.634 313.079C256.634 313.079 252.552 359.73 250.22 363.812C247.887 367.894 247.887 381.889 250.22 381.889C252.552 381.889 278.21 380.723 279.96 377.224C281.709 373.725 291.622 295.002 291.622 295.002C291.622 295.002 299.786 267.594 290.456 269.344C281.126 271.093 174.995 261.18 174.995 261.18Z"
        fill="#3F3D56" />
    <path
        d="M274.711 374.891C274.711 374.891 280.543 370.809 283.458 374.891C286.374 378.973 287.54 383.638 274.711 390.636C261.882 397.634 251.969 395.884 251.969 394.718V377.807L274.711 374.891Z"
        fill="#2F2E41" />
    <path
        d="M173.829 373.142C173.829 373.142 167.998 369.06 165.082 373.142C162.166 377.224 161 381.889 173.829 388.887C186.658 395.884 196.571 394.135 196.571 392.968V376.058L173.829 373.142Z"
        fill="#2F2E41" />
    <path
        d="M228.787 62.3807C226.58 62.3041 224.377 62.6181 222.279 63.3084C220.652 63.9623 219.098 64.7845 217.642 65.7615L207.859 71.8451C207.029 72.2045 206.323 72.8019 205.832 73.5618C205.341 74.3217 205.085 75.2102 205.098 76.1151L203.876 85.2702C203.567 87.5806 203.283 90.0514 204.317 92.1403C205.18 93.8838 206.826 95.0769 208.18 96.4743C210.346 98.7198 211.804 101.553 212.373 104.621C213.073 108.443 212.625 113.046 215.649 115.486C217.287 116.807 219.52 117.056 221.62 117.179C227.364 117.515 233.127 117.293 238.828 116.517C239.735 116.449 240.618 116.201 241.428 115.788C242.457 115.18 243.104 114.106 243.709 113.076C245.894 109.357 248.145 105.4 248.122 101.087C248.11 98.9526 247.564 96.6608 248.588 94.7889C249.13 93.9932 249.718 93.2301 250.348 92.5032C251.617 90.7206 251.864 88.4302 252.071 86.252C252.731 79.2944 252.041 73.9998 246.913 69.0988C242.126 64.5238 235.315 62.4229 228.787 62.3807Z"
        fill="#2F2E41" />
    <path d="M174.355 330.071L154.893 429.002H164.624L183.275 331.694L174.355 330.071Z"
        fill="#2F2E41" />
    <path d="M236.795 338.181L248.959 451.708H257.068L249.769 334.937L236.795 338.181Z"
        fill="#2F2E41" />
    <path d="M270.042 334.937L287.071 410.352H295.18L278.962 333.315L270.042 334.937Z"
        fill="#2F2E41" />
    <path d="M205.17 334.937L202.737 394.944H209.224L214.09 334.937H205.17Z" fill="#2F2E41" />
    <path
        d="M160.57 319.53C160.57 319.53 147.595 232.762 184.086 230.33C220.577 227.897 272.475 230.33 272.475 230.33C272.475 230.33 302.479 227.897 293.559 319.53C293.559 319.53 301.668 346.29 228.686 343.857C155.704 341.424 160.57 319.53 160.57 319.53Z"
        fill="#2F2E41" />
    <path
        d="M493.048 354.962C493.048 370.093 484.053 375.376 472.957 375.376C461.861 375.376 452.866 370.093 452.866 354.962C452.866 339.832 472.957 320.583 472.957 320.583C472.957 320.583 493.048 339.832 493.048 354.962Z"
        fill="#6A3ED4" />
    <path
        d="M472.431 360.399L480.994 344.733L472.463 358.412L472.556 352.718L478.457 341.384L472.58 351.212L472.746 340.971L479.066 331.948L472.772 339.361L472.877 320.583L472.251 344.377L465.852 334.581L472.174 346.384L471.575 357.821L471.557 357.517L464.15 347.168L471.535 358.59L471.46 360.02L471.447 360.042L471.453 360.159L469.934 375.421H471.964L472.207 374.188L479.574 362.794L472.225 373.061L472.431 360.399Z"
        fill="#3F3D56" />
    <path d="M485.788 408.198H461.836L455.646 373.212H490.632L485.788 408.198Z" fill="#2F2E41" />
    <path d="M133.835 171.669H84.0093V230.086H133.835V171.669Z" fill="#3F3D56" />
    <path d="M126.104 180.734H91.7408V221.021H126.104V180.734Z" fill="#222222" />
    <path
        d="M112.366 189.29L108.877 195.334L105.387 189.29H93.7674L108.877 215.461L123.986 189.29H112.366Z"
        fill="#4DBA87" />
    <path
        d="M112.366 189.29L108.877 195.334L105.387 189.29H99.8111L108.877 204.992L117.942 189.29H112.366Z"
        fill="#435466" />
</svg>