<svg xmlns="http://www.w3.org/2000/svg" viewBox="0 0 370.89 314.26">
  <defs>
    <style>
      .cls-1 {
        fill: #6a3ed4;
        stroke-width: 0px;
      }
    </style>
  </defs>
  <g id="OBJECTS">
    <g>
      <path class="cls-1" d="M269.09,0c-41.97,0-75.99,34.02-75.99,75.99v176.15c0,2.05-.55,3.48-1.78,4.62-.42.4-1.55,1.44-4.01.77-.84-.23-3.66-1.22-4.6-4.38L121.08,45.98c-6.25-21.01-22.67-37-43.92-42.79-20.53-5.6-41.98-.39-57.37,13.93C7.03,29,0,45.33,0,63.11v222.47c0,15.61,12.65,28.26,28.26,28.26h0c15.61,0,28.26-12.65,28.26-28.26V63.11c0-2.05.55-3.48,1.78-4.62.43-.39,1.55-1.44,4.01-.77.84.23,3.66,1.22,4.6,4.38l61.64,207.17c6.25,21,22.67,37,43.92,42.79,5.43,1.48,10.93,2.2,16.35,2.2,15.1,0,29.7-5.6,41.01-16.14,12.76-11.88,19.79-28.21,19.79-45.99V75.99c0-10.75,8.72-19.47,19.47-19.47h73.55c15.61,0,28.26-12.65,28.26-28.26h0c0-15.61-12.65-28.26-28.26-28.26h-73.55Z"/>
      <path class="cls-1" d="M332.08,162.11c0,15.78-12.79,28.57-28.57,28.57s-28.57-12.79-28.57-28.57,12.79-28.57,28.57-28.57,28.57,12.79,28.57,28.57Z"/>
    </g>
  </g>
</svg>