<svg width="30" height="30" viewBox="0 0 30 30" fill="none" xmlns="http://www.w3.org/2000/svg">
    <path id="Vector"
        d="M13.3333 18.3333H15.8333C17.3804 18.3333 18.8642 17.7188 19.9581 16.6248C21.0521 15.5308 21.6667 14.0471 21.6667 12.5C21.6667 10.9529 21.0521 9.46917 19.9581 8.37521C18.8642 7.28125 17.3804 6.66667 15.8333 6.66667H10V23.3333H13.3333V18.3333ZM1.66667 0H28.3333C28.7754 0 29.1993 0.175595 29.5118 0.488155C29.8244 0.800716 30 1.22464 30 1.66667V28.3333C30 28.7754 29.8244 29.1993 29.5118 29.5118C29.1993 29.8244 28.7754 30 28.3333 30H1.66667C1.22464 30 0.800716 29.8244 0.488155 29.5118C0.175595 29.1993 0 28.7754 0 28.3333V1.66667C0 1.22464 0.175595 0.800716 0.488155 0.488155C0.800716 0.175595 1.22464 0 1.66667 0ZM13.3333 10H15.8333C16.4964 10 17.1323 10.2634 17.6011 10.7322C18.0699 11.2011 18.3333 11.837 18.3333 12.5C18.3333 13.163 18.0699 13.7989 17.6011 14.2678C17.1323 14.7366 16.4964 15 15.8333 15H13.3333V10Z"
        fill="url(#paint0_radial_5576_23)" fill-opacity="0.47" />
    <defs>
        <radialGradient id="paint0_radial_5576_23" cx="0" cy="0" r="1"
            gradientUnits="userSpaceOnUse" gradientTransform="translate(15 15) rotate(90) scale(15)">
            <stop stop-color="#8DFD95" />
            <stop offset="1" stop-color="#5AA05F" />
        </radialGradient>
    </defs>
</svg>